<svg xmlns="http://www.w3.org/2000/svg" xmlns:xlink="http://www.w3.org/1999/xlink" width="500" zoomAndPan="magnify" viewBox="0 0 375 374.999991" height="500" preserveAspectRatio="xMidYMid meet" version="1.0"><defs><g/><clipPath id="0af638a2bd"><path d="M 130.222656 129 L 134 129 L 134 134 L 130.222656 134 Z M 130.222656 129 " clip-rule="nonzero"/></clipPath><clipPath id="dae35c8475"><path d="M 130.222656 63.539062 L 244.972656 63.539062 L 244.972656 251.789062 L 130.222656 251.789062 Z M 130.222656 63.539062 " clip-rule="nonzero"/></clipPath></defs><rect x="-37.5" width="450" fill="#ffffff" y="-37.499999" height="449.999989" fill-opacity="1"/><rect x="-37.5" width="450" fill="#003d47" y="-37.499999" height="449.999989" fill-opacity="1"/><path fill="#ffffff" d="M 164.3125 139.519531 L 164.914062 141.761719 L 165.511719 139.480469 C 165.714844 138.757812 166.273438 138.199219 166.992188 138 L 169.234375 137.398438 L 166.953125 136.800781 C 166.234375 136.597656 165.671875 136.039062 165.472656 135.320312 L 164.871094 133.078125 L 164.273438 135.359375 C 164.074219 136.078125 163.511719 136.640625 162.792969 136.839844 L 160.550781 137.4375 L 162.832031 138.039062 C 163.550781 138.238281 164.152344 138.800781 164.3125 139.519531 Z M 164.3125 139.519531 " fill-opacity="1" fill-rule="nonzero"/><path fill="#ffffff" d="M 206.523438 131.558594 L 207.125 133.796875 L 207.722656 131.519531 C 207.925781 130.796875 208.484375 130.238281 209.203125 130.039062 L 211.445312 129.4375 L 209.164062 128.835938 C 208.445312 128.636719 207.882812 128.078125 207.683594 127.355469 L 207.085938 125.117188 L 206.484375 127.398438 C 206.285156 128.117188 205.722656 128.675781 205.003906 128.878906 L 202.761719 129.476562 L 205.042969 130.078125 C 205.765625 130.277344 206.324219 130.835938 206.523438 131.558594 Z M 206.523438 131.558594 " fill-opacity="1" fill-rule="nonzero"/><path fill="#ffffff" d="M 191.960938 100.269531 L 192.558594 102.511719 L 193.160156 100.230469 C 193.359375 99.507812 193.921875 98.949219 194.640625 98.75 L 196.882812 98.148438 L 194.601562 97.546875 C 193.878906 97.347656 193.320312 96.789062 193.121094 96.066406 L 192.519531 93.828125 L 191.921875 96.109375 C 191.71875 96.828125 191.160156 97.386719 190.441406 97.589844 L 188.199219 98.1875 L 190.480469 98.789062 C 191.199219 98.988281 191.761719 99.550781 191.960938 100.269531 Z M 191.960938 100.269531 " fill-opacity="1" fill-rule="nonzero"/><path fill="#ffffff" d="M 154.070312 216.261719 L 153.46875 214.019531 L 152.871094 216.300781 C 152.667969 217.019531 152.109375 217.582031 151.390625 217.78125 L 149.148438 218.382812 L 151.429688 218.980469 C 152.148438 219.179688 152.710938 219.742188 152.910156 220.460938 L 153.511719 222.703125 L 154.109375 220.421875 C 154.308594 219.703125 154.871094 219.140625 155.589844 218.941406 L 157.832031 218.339844 L 155.550781 217.742188 C 154.832031 217.539062 154.269531 216.980469 154.070312 216.261719 Z M 154.070312 216.261719 " fill-opacity="1" fill-rule="nonzero"/><path fill="#ffffff" d="M 144.027344 106.3125 L 144.828125 109.152344 L 145.585938 106.3125 C 145.828125 105.390625 146.546875 104.671875 147.429688 104.429688 L 150.269531 103.628906 L 147.429688 102.871094 C 146.507812 102.628906 145.789062 101.910156 145.546875 101.03125 L 144.746094 98.1875 L 143.988281 101.03125 C 143.746094 101.949219 143.027344 102.671875 142.148438 102.910156 L 139.304688 103.710938 L 142.148438 104.46875 C 143.066406 104.671875 143.789062 105.390625 144.027344 106.3125 Z M 144.027344 106.3125 " fill-opacity="1" fill-rule="nonzero"/><path fill="#ffffff" d="M 220.527344 95.386719 L 221.328125 98.230469 L 222.089844 95.386719 C 222.328125 94.46875 223.046875 93.746094 223.929688 93.507812 L 226.769531 92.707031 L 223.929688 91.945312 C 223.007812 91.707031 222.289062 90.988281 222.046875 90.105469 L 221.246094 87.265625 L 220.488281 90.105469 C 220.246094 91.027344 219.527344 91.746094 218.648438 91.988281 L 215.804688 92.789062 L 218.648438 93.546875 C 219.566406 93.746094 220.289062 94.46875 220.527344 95.386719 Z M 220.527344 95.386719 " fill-opacity="1" fill-rule="nonzero"/><path fill="#ffffff" d="M 168.152344 157.644531 C 167.152344 157.644531 166.3125 158.484375 166.3125 159.484375 C 166.3125 160.484375 167.152344 161.324219 168.152344 161.324219 C 169.152344 161.324219 169.996094 160.484375 169.996094 159.484375 C 169.996094 158.484375 169.195312 157.644531 168.152344 157.644531 Z M 168.152344 157.644531 " fill-opacity="1" fill-rule="nonzero"/><g clip-path="url(#0af638a2bd)"><path fill="#ffffff" d="M 132.105469 133.199219 C 133.105469 133.199219 133.945312 132.359375 133.945312 131.359375 C 133.945312 130.355469 133.105469 129.515625 132.105469 129.515625 C 131.105469 129.515625 130.261719 130.355469 130.261719 131.359375 C 130.222656 132.359375 131.0625 133.199219 132.105469 133.199219 Z M 132.105469 133.199219 " fill-opacity="1" fill-rule="nonzero"/></g><path fill="#ffffff" d="M 235.171875 194.933594 C 234.171875 194.933594 233.332031 195.773438 233.332031 196.773438 C 233.332031 197.777344 234.171875 198.617188 235.171875 198.617188 C 236.171875 198.617188 237.011719 197.777344 237.011719 196.773438 C 237.011719 195.773438 236.171875 194.933594 235.171875 194.933594 Z M 235.171875 194.933594 " fill-opacity="1" fill-rule="nonzero"/><path fill="#ffffff" d="M 199.722656 142.921875 C 199.960938 143.679688 200.722656 144.082031 201.484375 143.882812 C 202.242188 143.640625 202.644531 142.878906 202.441406 142.121094 C 202.203125 141.359375 201.441406 140.960938 200.683594 141.160156 C 199.921875 141.398438 199.480469 142.160156 199.722656 142.921875 Z M 199.722656 142.921875 " fill-opacity="1" fill-rule="nonzero"/><path fill="#ffffff" d="M 170.394531 113.632812 C 171.15625 113.394531 171.554688 112.632812 171.355469 111.871094 C 171.113281 111.113281 170.355469 110.710938 169.59375 110.914062 C 168.832031 111.152344 168.433594 111.914062 168.632812 112.671875 C 168.875 113.433594 169.675781 113.871094 170.394531 113.632812 Z M 170.394531 113.632812 " fill-opacity="1" fill-rule="nonzero"/><path fill="#ffffff" d="M 232.929688 116.792969 C 233.691406 116.554688 234.089844 115.792969 233.890625 115.035156 C 233.652344 114.273438 232.890625 113.871094 232.132812 114.074219 C 231.371094 114.3125 230.96875 115.074219 231.171875 115.832031 C 231.410156 116.59375 232.171875 117.035156 232.929688 116.792969 Z M 232.929688 116.792969 " fill-opacity="1" fill-rule="nonzero"/><path fill="#ffffff" d="M 187.558594 112.832031 L 199.160156 122.394531 L 200.121094 121.234375 L 188.039062 111.273438 C 187.757812 111.03125 187.359375 111.03125 187.078125 111.273438 L 174.996094 121.234375 L 175.957031 122.394531 Z M 187.558594 112.832031 " fill-opacity="1" fill-rule="nonzero"/><path fill="#ffffff" d="M 193.519531 128.757812 L 191.878906 128.757812 C 191.960938 125.394531 191.480469 123.074219 190.320312 121.835938 C 189.597656 121.074219 188.679688 120.714844 187.558594 120.714844 C 186.4375 120.714844 185.519531 121.074219 184.796875 121.835938 C 183.636719 123.074219 183.117188 125.394531 183.238281 128.757812 L 181.597656 128.757812 L 179.835938 122.113281 L 178.394531 122.515625 L 180.316406 129.71875 C 180.398438 130.039062 180.675781 130.277344 181.039062 130.277344 L 194.082031 130.277344 C 194.402344 130.277344 194.722656 130.039062 194.800781 129.71875 L 196.722656 122.515625 L 195.28125 122.113281 Z M 184.757812 128.757812 C 184.679688 125.796875 185.039062 123.796875 185.917969 122.875 C 186.320312 122.433594 186.878906 122.234375 187.597656 122.234375 C 188.320312 122.234375 188.839844 122.433594 189.28125 122.875 C 190.160156 123.796875 190.558594 125.835938 190.441406 128.757812 Z M 184.757812 128.757812 " fill-opacity="1" fill-rule="nonzero"/><g clip-path="url(#dae35c8475)"><path fill="#ffffff" d="M 188.160156 64.140625 C 187.878906 63.699219 187.160156 63.699219 186.878906 64.140625 L 130.542969 157.363281 C 130.382812 157.605469 130.382812 157.886719 130.542969 158.125 L 139.546875 172.96875 C 139.144531 174.167969 138.824219 175.410156 138.585938 176.769531 C 137.304688 183.730469 138.503906 189.691406 142.066406 194.496094 C 146.269531 200.097656 152.871094 202.738281 157.992188 203.496094 L 186.878906 251.191406 C 187 251.429688 187.238281 251.550781 187.519531 251.550781 C 187.757812 251.550781 188 251.429688 188.160156 251.191406 L 244.613281 158.125 C 244.773438 157.886719 244.773438 157.605469 244.613281 157.363281 Z M 227.890625 162.644531 C 227.929688 162.605469 233.8125 158.285156 242.652344 158.445312 L 239.09375 164.285156 C 236.773438 164.085938 226.210938 163.765625 218.488281 172.6875 C 222.566406 162.324219 227.410156 152.484375 238.574219 150.242188 L 242.652344 156.964844 C 233.371094 156.804688 227.25 161.285156 227.007812 161.484375 Z M 219.726562 196.253906 C 211.085938 202.058594 203.082031 201.296875 195.359375 200.535156 C 190.28125 200.015625 185.476562 199.574219 181.078125 201.136719 L 181.558594 202.535156 C 185.679688 201.054688 190.320312 201.535156 195.199219 202.015625 C 202.164062 202.695312 209.925781 203.417969 218.085938 198.9375 L 215.367188 203.417969 C 210.683594 206.21875 203.964844 206.816406 195.480469 205.21875 C 185.839844 203.417969 175.035156 202.777344 166.753906 211.179688 C 170.632812 200.617188 185.636719 197.054688 193.640625 196.695312 C 194.761719 196.65625 195.921875 196.613281 197.121094 196.613281 C 205.242188 196.457031 215.085938 196.253906 224.730469 187.972656 Z M 197.480469 219.300781 C 197.441406 219.300781 197.441406 219.300781 197.402344 219.300781 C 192.082031 219.339844 185.359375 222.863281 181.558594 228.105469 C 181.917969 227.183594 182.277344 226.222656 182.796875 225.304688 C 187.117188 217.339844 196.761719 210.300781 207.324219 207.417969 C 209.84375 207.179688 212.046875 206.496094 214.046875 205.617188 L 203.761719 222.582031 C 202.601562 220.5 200.441406 219.300781 197.480469 219.300781 Z M 178.957031 233.585938 C 178.957031 234.066406 178.875 234.585938 178.917969 235.066406 L 172.433594 224.382812 C 172.355469 221.421875 173.914062 218.101562 176.957031 214.980469 C 181.957031 209.859375 189.597656 206.578125 196.242188 206.859375 L 196.242188 206.816406 C 198.402344 207.179688 200.480469 207.417969 202.402344 207.5 C 193.199219 211.058594 185.398438 217.339844 181.476562 224.621094 C 179.875 227.542969 179.078125 230.503906 178.957031 233.386719 C 178.917969 233.464844 178.875 233.546875 178.875 233.585938 Z M 154.628906 157.246094 C 149.109375 162.285156 146.429688 168.367188 147.386719 174.167969 C 148.269531 179.410156 152.03125 183.371094 157.472656 184.773438 L 157.832031 183.332031 C 152.988281 182.089844 149.628906 178.570312 148.867188 173.929688 C 147.867188 167.925781 151.148438 161.605469 157.671875 156.605469 C 155.191406 162.566406 155.628906 168.929688 159.152344 174.007812 C 162.433594 178.769531 167.753906 181.570312 173.355469 181.769531 C 166.472656 183.332031 162.03125 181.851562 159.472656 180.210938 C 156.511719 178.289062 154.628906 175.289062 154.191406 171.726562 L 152.710938 171.929688 C 153.191406 175.929688 155.308594 179.289062 158.671875 181.449219 C 160.671875 182.730469 163.632812 183.933594 167.832031 183.933594 C 169.113281 183.933594 170.554688 183.8125 172.113281 183.53125 C 161.910156 188.453125 152.871094 188.332031 146.867188 182.929688 L 145.867188 184.050781 C 149.269531 187.09375 153.550781 188.613281 158.390625 188.613281 C 163.511719 188.613281 169.3125 186.851562 175.394531 183.453125 L 174.554688 190.613281 C 163.113281 196.773438 154.351562 193.855469 150.109375 191.492188 C 144.308594 188.292969 140.386719 182.613281 140.027344 176.96875 C 142.148438 165.726562 149.546875 159.964844 154.628906 157.246094 Z M 182.199219 138.160156 L 188.199219 138.160156 L 181.476562 144.519531 Z M 181.195312 146.800781 L 190.359375 138.160156 L 192.960938 138.160156 L 193.480469 142.640625 L 180.238281 155.085938 Z M 235.613281 145.363281 C 225.367188 147.402344 216.527344 158.765625 210.003906 178.449219 L 211.40625 178.929688 C 217.886719 159.445312 226.53125 148.320312 236.410156 146.683594 L 237.773438 148.960938 C 225.007812 151.84375 220.046875 164.445312 215.765625 175.648438 C 212.484375 184.132812 209.40625 192.175781 203.441406 194.855469 C 202.644531 194.933594 201.84375 194.976562 201.082031 195.015625 L 200.441406 189.375 C 205.042969 184.53125 207.644531 177.730469 210.125 171.167969 C 213.285156 162.804688 216.566406 154.203125 223.929688 149.402344 C 224.128906 149.28125 224.25 149.082031 224.25 148.84375 C 224.289062 148.601562 224.207031 148.402344 224.046875 148.242188 C 223.847656 148.042969 223.570312 147.960938 223.328125 148.042969 C 211.367188 151.28125 206.003906 160.285156 201.722656 167.527344 C 200.640625 169.367188 199.5625 171.046875 198.523438 172.527344 L 197.320312 162.164062 C 204.082031 150.203125 212.6875 142.320312 220.96875 140.558594 C 225.808594 139.519531 230.449219 140.558594 234.691406 143.640625 Z M 175.035156 199.734375 L 191.519531 184.210938 L 192.558594 184.210938 C 192.960938 184.210938 193.320312 183.890625 193.320312 183.453125 L 193.320312 182.53125 L 197.640625 178.449219 L 198.402344 185.09375 L 186.71875 196.09375 C 182.835938 196.855469 178.636719 198.175781 174.957031 200.214844 Z M 193.199219 173.207031 L 196.640625 169.96875 L 197.402344 176.609375 L 193.28125 180.492188 L 193.28125 174.371094 C 193.320312 173.929688 193.242188 173.570312 193.199219 173.207031 Z M 199.523438 181.609375 C 203.242188 178.050781 204.84375 174.449219 206.484375 170.648438 C 207.324219 168.6875 208.203125 166.6875 209.40625 164.648438 L 208.125 163.886719 C 206.882812 166.007812 205.964844 168.046875 205.125 170.046875 C 203.683594 173.410156 202.203125 176.570312 199.28125 179.691406 L 198.722656 174.808594 C 200.164062 173.050781 201.523438 170.808594 202.964844 168.367188 C 206.605469 162.246094 211.003906 154.84375 219.566406 151.003906 C 214.207031 156.164062 211.40625 163.527344 208.722656 170.6875 C 206.363281 176.96875 204.003906 182.851562 200.203125 187.371094 Z M 192.839844 171.527344 C 192.039062 169.289062 190.320312 168.246094 188.800781 167.925781 L 195.679688 161.445312 L 196.441406 168.128906 Z M 187.597656 169.246094 C 188.039062 169.246094 191.839844 169.40625 191.839844 174.371094 L 191.839844 182.730469 L 183.359375 182.730469 L 183.359375 174.371094 C 183.316406 169.40625 187.160156 169.246094 187.597656 169.246094 Z M 198.640625 186.933594 L 199.601562 195.09375 C 198.761719 195.136719 197.921875 195.136719 197.121094 195.175781 C 195.921875 195.214844 194.722656 195.214844 193.601562 195.253906 C 192.320312 195.292969 190.878906 195.453125 189.398438 195.65625 Z M 179.957031 157.40625 L 193.679688 144.480469 L 194.441406 151.121094 L 178.957031 165.6875 Z M 178.714844 167.96875 L 194.679688 152.964844 L 195.441406 159.605469 L 186.679688 167.847656 C 184.957031 168.128906 182.835938 169.289062 182.117188 172.167969 L 177.757812 176.289062 Z M 181.835938 181.851562 L 176.515625 186.851562 L 177.476562 178.570312 L 181.835938 174.488281 Z M 176.277344 189.09375 L 181.996094 183.730469 C 182.117188 183.972656 182.316406 184.171875 182.597656 184.171875 L 189.359375 184.171875 L 175.277344 197.414062 Z M 173.355469 201.175781 C 169.394531 203.738281 166.234375 207.257812 164.953125 212.058594 L 159.871094 203.695312 C 160.191406 203.695312 160.511719 203.738281 160.832031 203.738281 C 164.632812 203.738281 168.914062 202.578125 173.433594 200.417969 Z M 171.15625 222.261719 L 166.234375 214.101562 C 172.914062 205.816406 181.917969 204.898438 190.480469 205.9375 C 185.117188 207.097656 179.796875 209.980469 175.914062 213.941406 C 173.273438 216.660156 171.675781 219.5 171.15625 222.261719 Z M 227.890625 182.8125 C 221.089844 190.492188 214.007812 193.292969 207.445312 194.375 C 211.523438 192.253906 214.925781 188.574219 218.207031 184.972656 C 221.207031 181.652344 224.289062 178.210938 227.890625 176.007812 L 227.128906 174.730469 C 223.328125 177.050781 220.167969 180.570312 217.125 183.972656 C 214.886719 186.453125 212.726562 188.773438 210.363281 190.695312 C 212.644531 187.492188 214.40625 183.371094 216.125 179.011719 C 222.726562 165.96875 234.613281 165.488281 238.332031 165.6875 Z M 132.0625 157.726562 L 187.519531 65.941406 L 232.972656 141 C 229.050781 138.917969 224.929688 138.238281 220.566406 139.160156 C 212.285156 140.960938 203.804688 148.480469 196.960938 159.84375 L 194.359375 137.4375 L 194.359375 132.078125 L 192.878906 132.078125 L 192.878906 136.679688 L 191.359375 136.679688 L 191.359375 133.878906 L 189.878906 133.878906 L 189.878906 136.679688 L 188.359375 136.679688 L 188.359375 133.878906 L 186.878906 133.878906 L 186.878906 136.679688 L 185.359375 136.679688 L 185.359375 133.878906 L 183.878906 133.878906 L 183.878906 136.679688 L 182.277344 136.679688 L 182.277344 132.078125 L 180.796875 132.078125 L 180.796875 137.359375 L 175.796875 180.171875 C 169.835938 180.890625 163.832031 178.210938 160.351562 173.167969 C 156.628906 167.726562 156.511719 161.046875 160.113281 154.765625 C 160.273438 154.523438 160.230469 154.203125 160.070312 153.964844 C 159.910156 153.722656 159.589844 153.644531 159.3125 153.683594 C 159.152344 153.722656 145.546875 157.40625 140.1875 171.207031 Z M 143.265625 193.574219 C 140.746094 190.214844 139.546875 186.210938 139.585938 181.652344 C 141.226562 186.09375 144.789062 190.171875 149.429688 192.773438 C 152.988281 194.773438 156.949219 195.734375 161.070312 195.734375 C 165.433594 195.734375 169.996094 194.574219 174.394531 192.335938 L 173.675781 198.695312 C 168.355469 201.375 163.351562 202.617188 159.230469 202.214844 C 154.46875 201.695312 147.46875 199.175781 143.265625 193.574219 Z M 187.519531 249.308594 L 180.957031 238.507812 C 180.476562 236.945312 180.316406 235.304688 180.398438 233.625 C 182.4375 226.421875 191.121094 220.820312 197.363281 220.78125 C 197.402344 220.78125 197.402344 220.78125 197.441406 220.78125 C 199.441406 220.78125 201.921875 221.421875 202.804688 224.101562 Z M 187.519531 249.308594 " fill-opacity="1" fill-rule="nonzero"/></g><g fill="#ffffff" fill-opacity="1"><g transform="translate(109.372945, 292.466582)"><g><path d="M 25.640625 -23.546875 C 25.640625 -23.453125 25.59375 -23.40625 25.5 -23.40625 L 24.859375 -23.40625 C 23.421875 -23.125 22.359375 -21.941406 21.671875 -19.859375 C 21.484375 -19.304688 21.296875 -18.773438 21.109375 -18.265625 L 14.390625 -0.140625 C 14.285156 0.148438 14.160156 0.320312 14.015625 0.375 C 13.867188 0.4375 13.664062 0.46875 13.40625 0.46875 L 12.59375 0.46875 C 12.320312 0.46875 12.144531 0.335938 12.0625 0.078125 L 3.0625 -21.734375 C 2.695312 -22.640625 1.796875 -23.191406 0.359375 -23.390625 C 0.273438 -23.398438 0.207031 -23.40625 0.15625 -23.40625 C 0.101562 -23.40625 0.078125 -23.453125 0.078125 -23.546875 L 0.078125 -23.953125 C 0.078125 -24.046875 0.125 -24.09375 0.21875 -24.09375 L 10.3125 -24.09375 C 10.394531 -24.09375 10.4375 -24.046875 10.4375 -23.953125 L 10.4375 -23.546875 C 10.4375 -23.453125 10.394531 -23.40625 10.3125 -23.40625 L 10.046875 -23.40625 C 9.765625 -23.363281 9.4375 -23.320312 9.0625 -23.28125 C 7.601562 -23.09375 6.875 -22.507812 6.875 -21.53125 C 6.875 -21.226562 6.953125 -20.898438 7.109375 -20.546875 L 13.59375 -4.78125 C 13.695312 -4.550781 13.816406 -4.554688 13.953125 -4.796875 L 19.890625 -20.90625 C 19.972656 -21.132812 20.015625 -21.40625 20.015625 -21.71875 C 20.015625 -22.03125 19.878906 -22.328125 19.609375 -22.609375 C 19.347656 -22.898438 19.082031 -23.066406 18.8125 -23.109375 C 18.550781 -23.160156 18.34375 -23.195312 18.1875 -23.21875 C 18.039062 -23.25 17.8125 -23.285156 17.5 -23.328125 C 17.1875 -23.378906 16.976562 -23.40625 16.875 -23.40625 C 16.78125 -23.40625 16.734375 -23.453125 16.734375 -23.546875 L 16.734375 -23.953125 C 16.734375 -24.046875 16.78125 -24.09375 16.875 -24.09375 L 25.5 -24.09375 C 25.59375 -24.09375 25.640625 -24.046875 25.640625 -23.953125 Z M 25.640625 -23.546875 "/></g></g></g><g fill="#ffffff" fill-opacity="1"><g transform="translate(135.087417, 292.466582)"><g><path d="M 21.90625 -1.46875 C 20.914062 -0.863281 19.832031 -0.390625 18.65625 -0.046875 C 17.488281 0.296875 16.445312 0.46875 15.53125 0.46875 C 13.664062 0.46875 11.882812 0.164062 10.1875 -0.4375 C 7.863281 -1.28125 5.992188 -2.53125 4.578125 -4.1875 C 2.773438 -6.289062 1.875 -8.960938 1.875 -12.203125 C 1.875 -14.535156 2.472656 -16.660156 3.671875 -18.578125 C 4.867188 -20.503906 6.523438 -22.023438 8.640625 -23.140625 C 10.753906 -24.253906 13.023438 -24.8125 15.453125 -24.8125 C 17.890625 -24.8125 20.070312 -24.269531 22 -23.1875 C 23.925781 -22.101562 25.46875 -20.613281 26.625 -18.71875 C 27.789062 -16.832031 28.375 -14.785156 28.375 -12.578125 C 28.375 -10.378906 27.796875 -8.285156 26.640625 -6.296875 C 25.492188 -4.304688 23.914062 -2.695312 21.90625 -1.46875 Z M 5.46875 -12.75 C 5.46875 -10.851562 5.882812 -8.972656 6.71875 -7.109375 C 7.5625 -5.253906 8.757812 -3.738281 10.3125 -2.5625 C 11.875 -1.382812 13.679688 -0.796875 15.734375 -0.796875 C 18.648438 -0.796875 20.925781 -1.914062 22.5625 -4.15625 C 24.03125 -6.164062 24.765625 -8.738281 24.765625 -11.875 C 24.765625 -15.007812 23.863281 -17.710938 22.0625 -19.984375 C 21.1875 -21.085938 20.113281 -21.972656 18.84375 -22.640625 C 17.570312 -23.304688 16.289062 -23.640625 15 -23.640625 C 13.707031 -23.640625 12.644531 -23.492188 11.8125 -23.203125 C 10.988281 -22.921875 10.238281 -22.53125 9.5625 -22.03125 C 8.894531 -21.539062 8.304688 -20.953125 7.796875 -20.265625 C 7.285156 -19.585938 6.859375 -18.847656 6.515625 -18.046875 C 5.816406 -16.410156 5.46875 -14.644531 5.46875 -12.75 Z M 5.46875 -12.75 "/></g></g></g><g fill="#ffffff" fill-opacity="1"><g transform="translate(165.329687, 292.466582)"><g><path d="M 8.984375 0 C 8.597656 0 8.40625 -0.113281 8.40625 -0.34375 L 8.40625 -0.515625 C 8.40625 -0.691406 8.570312 -0.800781 8.90625 -0.84375 C 9.25 -0.882812 9.472656 -0.910156 9.578125 -0.921875 C 10.441406 -1.015625 11.046875 -1.226562 11.390625 -1.5625 C 11.742188 -1.894531 11.921875 -2.398438 11.921875 -3.078125 L 11.921875 -8.734375 C 11.921875 -8.816406 11.90625 -8.898438 11.875 -8.984375 L 4.890625 -20.125 C 3.796875 -21.875 2.710938 -22.878906 1.640625 -23.140625 C 1.585938 -23.148438 1.484375 -23.171875 1.328125 -23.203125 C 1.179688 -23.242188 0.851562 -23.300781 0.34375 -23.375 C 0.15625 -23.414062 0.0625 -23.546875 0.0625 -23.765625 C 0.0625 -23.984375 0.148438 -24.09375 0.328125 -24.09375 L 10.09375 -24.09375 C 10.289062 -24.09375 10.390625 -23.976562 10.390625 -23.75 C 10.390625 -23.519531 10.289062 -23.40625 10.09375 -23.40625 C 9.332031 -23.332031 8.828125 -23.253906 8.578125 -23.171875 C 8.003906 -22.960938 7.71875 -22.597656 7.71875 -22.078125 C 7.71875 -21.804688 7.789062 -21.5625 7.9375 -21.34375 L 13.703125 -12.109375 C 13.828125 -11.929688 13.90625 -11.816406 13.9375 -11.765625 C 13.96875 -11.710938 14.03125 -11.6875 14.125 -11.6875 C 14.21875 -11.6875 14.367188 -11.851562 14.578125 -12.1875 L 19.1875 -20.03125 C 19.320312 -20.300781 19.476562 -20.59375 19.65625 -20.90625 C 19.832031 -21.21875 19.921875 -21.539062 19.921875 -21.875 C 19.921875 -22.707031 19.351562 -23.195312 18.21875 -23.34375 C 17.8125 -23.40625 17.585938 -23.46875 17.546875 -23.53125 C 17.515625 -23.601562 17.5 -23.691406 17.5 -23.796875 C 17.5 -23.992188 17.597656 -24.09375 17.796875 -24.09375 L 25.765625 -24.09375 C 25.929688 -24.09375 26.015625 -24.015625 26.015625 -23.859375 C 26.015625 -23.703125 25.988281 -23.59375 25.9375 -23.53125 C 25.882812 -23.476562 25.8125 -23.4375 25.71875 -23.40625 C 25.632812 -23.375 25.539062 -23.347656 25.4375 -23.328125 C 25.34375 -23.316406 25.125 -23.269531 24.78125 -23.1875 C 23.976562 -23 23.113281 -22.367188 22.1875 -21.296875 C 22.082031 -21.171875 22.023438 -21.097656 22.015625 -21.078125 L 15.265625 -9.453125 L 15.265625 -3.078125 C 15.265625 -2.460938 15.4375 -1.976562 15.78125 -1.625 C 16.125 -1.269531 16.707031 -1.035156 17.53125 -0.921875 C 18.363281 -0.816406 18.78125 -0.6875 18.78125 -0.53125 L 18.78125 -0.34375 C 18.78125 -0.113281 18.585938 0 18.203125 0 Z M 8.984375 0 "/></g></g></g><g fill="#ffffff" fill-opacity="1"><g transform="translate(191.420051, 292.466582)"><g><path d="M 9.09375 -0.140625 C 9.09375 -0.046875 9.046875 0 8.953125 0 L 0.21875 0 C 0.125 0 0.078125 -0.046875 0.078125 -0.140625 L 0.078125 -0.546875 C 0.078125 -0.640625 0.15625 -0.6875 0.3125 -0.6875 C 1.875 -0.75 2.925781 -1.578125 3.46875 -3.171875 L 10.4375 -23.359375 C 10.445312 -23.378906 10.453125 -23.410156 10.453125 -23.453125 L 10.265625 -24.015625 C 10.265625 -24.066406 10.289062 -24.09375 10.34375 -24.09375 L 13.75 -24.09375 C 13.78125 -24.082031 13.8125 -24.070312 13.84375 -24.0625 C 13.882812 -24.050781 13.921875 -24.015625 13.953125 -23.953125 L 21.171875 -3.671875 C 21.328125 -3.367188 21.453125 -3.09375 21.546875 -2.84375 C 21.648438 -2.59375 21.765625 -2.363281 21.890625 -2.15625 C 22.160156 -1.6875 22.613281 -1.328125 23.25 -1.078125 C 23.769531 -0.816406 24.242188 -0.6875 24.671875 -0.6875 C 24.765625 -0.6875 24.8125 -0.632812 24.8125 -0.53125 L 24.8125 -0.140625 C 24.8125 -0.046875 24.765625 0 24.671875 0 L 14.21875 0 C 14.125 0 14.078125 -0.046875 14.078125 -0.140625 L 14.078125 -0.546875 C 14.078125 -0.640625 14.285156 -0.695312 14.703125 -0.71875 C 15.128906 -0.738281 15.476562 -0.757812 15.75 -0.78125 C 17.332031 -0.957031 18.125 -1.492188 18.125 -2.390625 C 18.125 -2.460938 18.113281 -2.539062 18.09375 -2.625 L 15.515625 -9.90625 C 15.503906 -9.9375 15.484375 -9.988281 15.453125 -10.0625 C 15.316406 -10.445312 15.078125 -10.640625 14.734375 -10.640625 L 8.671875 -10.640625 C 8.328125 -10.640625 8.054688 -10.453125 7.859375 -10.078125 C 7.828125 -10.003906 7.8125 -9.960938 7.8125 -9.953125 L 5.25 -2.4375 L 5.25 -2.296875 C 5.25 -1.992188 5.398438 -1.722656 5.703125 -1.484375 C 6.398438 -0.953125 7.335938 -0.6875 8.515625 -0.6875 L 8.953125 -0.6875 C 9.046875 -0.6875 9.09375 -0.640625 9.09375 -0.546875 Z M 14.15625 -12.546875 C 14.351562 -12.546875 14.453125 -12.628906 14.453125 -12.796875 C 14.453125 -12.890625 14.429688 -12.992188 14.390625 -13.109375 L 11.84375 -20.109375 C 11.726562 -20.421875 11.644531 -20.578125 11.59375 -20.578125 C 11.53125 -20.578125 11.4375 -20.414062 11.3125 -20.09375 L 8.921875 -13.109375 C 8.878906 -12.992188 8.859375 -12.867188 8.859375 -12.734375 C 8.859375 -12.609375 8.941406 -12.546875 9.109375 -12.546875 Z M 14.15625 -12.546875 "/></g></g></g><g fill="#ffffff" fill-opacity="1"><g transform="translate(216.314394, 292.466582)"><g><path d="M 26.65625 -10.59375 C 26.78125 -10.59375 26.84375 -10.503906 26.84375 -10.328125 C 26.84375 -10.148438 26.78125 -10.03125 26.65625 -9.96875 C 26.351562 -9.84375 26.035156 -9.734375 25.703125 -9.640625 C 25.378906 -9.546875 25.082031 -9.425781 24.8125 -9.28125 C 24.1875 -8.9375 23.875 -8.382812 23.875 -7.625 L 23.875 -2.0625 C 23.875 -1.8125 23.269531 -1.472656 22.0625 -1.046875 C 20.863281 -0.628906 19.890625 -0.328125 19.140625 -0.140625 C 15.617188 0.722656 12.472656 0.632812 9.703125 -0.40625 C 6.523438 -1.625 4.273438 -3.804688 2.953125 -6.953125 C 2.296875 -8.523438 1.96875 -10.085938 1.96875 -11.640625 C 1.96875 -13.203125 2.117188 -14.507812 2.421875 -15.5625 C 3.359375 -18.800781 5.320312 -21.289062 8.3125 -23.03125 C 10.257812 -24.175781 12.304688 -24.75 14.453125 -24.75 C 16.597656 -24.75 18.878906 -24.316406 21.296875 -23.453125 C 21.734375 -23.285156 21.984375 -23.203125 22.046875 -23.203125 L 22.25 -23.203125 L 22.9375 -23.375 L 23.359375 -23.375 C 23.484375 -23.375 23.546875 -23.3125 23.546875 -23.1875 L 23.546875 -17.5 C 23.546875 -17.28125 23.421875 -17.171875 23.171875 -17.171875 L 23.109375 -17.171875 C 22.890625 -17.191406 22.738281 -17.484375 22.65625 -18.046875 C 22.632812 -18.160156 22.617188 -18.242188 22.609375 -18.296875 C 21.472656 -21.867188 19.066406 -23.65625 15.390625 -23.65625 C 12.453125 -23.65625 10.109375 -22.539062 8.359375 -20.3125 C 6.617188 -18.09375 5.75 -15.453125 5.75 -12.390625 C 5.75 -9.328125 6.625 -6.617188 8.375 -4.265625 C 10.132812 -1.910156 12.554688 -0.734375 15.640625 -0.734375 C 17.222656 -0.734375 18.523438 -0.976562 19.546875 -1.46875 C 19.953125 -1.664062 20.257812 -1.910156 20.46875 -2.203125 L 20.46875 -6.890625 C 20.46875 -7.953125 20.164062 -8.726562 19.5625 -9.21875 C 18.957031 -9.71875 17.847656 -9.96875 16.234375 -9.96875 C 16.109375 -9.96875 16.046875 -10.070312 16.046875 -10.28125 C 16.046875 -10.488281 16.109375 -10.59375 16.234375 -10.59375 Z M 26.65625 -10.59375 "/></g></g></g><g fill="#ffffff" fill-opacity="1"><g transform="translate(244.010845, 292.466582)"><g><path d="M 0.125 -0.140625 L 0.125 -0.609375 C 0.125 -0.703125 0.164062 -0.75 0.25 -0.75 L 0.625 -0.75 C 1.101562 -0.78125 1.59375 -0.800781 2.09375 -0.8125 C 2.601562 -0.820312 3.0625 -0.878906 3.46875 -0.984375 C 4.40625 -1.265625 4.875 -1.953125 4.875 -3.046875 L 4.875 -21.0625 C 4.875 -22.1875 4.207031 -22.898438 2.875 -23.203125 C 2.5 -23.285156 2.113281 -23.351562 1.71875 -23.40625 L 1.375 -23.40625 C 1.28125 -23.40625 1.234375 -23.453125 1.234375 -23.546875 L 1.234375 -23.953125 C 1.234375 -24.046875 1.28125 -24.09375 1.375 -24.09375 L 17.625 -24.09375 C 17.820312 -24.09375 17.96875 -24.054688 18.0625 -23.984375 C 18.15625 -23.910156 18.210938 -23.75 18.234375 -23.5 L 18.546875 -18.546875 C 18.546875 -18.429688 18.457031 -18.375 18.28125 -18.375 C 18.113281 -18.375 17.988281 -18.425781 17.90625 -18.53125 C 17.84375 -18.644531 17.753906 -19.054688 17.640625 -19.765625 C 17.535156 -20.484375 17.335938 -21.082031 17.046875 -21.5625 C 16.765625 -22.039062 16.265625 -22.34375 15.546875 -22.46875 L 8.421875 -22.46875 C 8.273438 -22.46875 8.203125 -22.394531 8.203125 -22.25 L 8.203125 -13.421875 C 8.203125 -13.304688 8.257812 -13.25 8.375 -13.25 L 14.28125 -13.25 C 15.8125 -13.25 16.578125 -14.132812 16.578125 -15.90625 C 16.578125 -16 16.625 -16.046875 16.71875 -16.046875 L 17.125 -16.046875 C 17.21875 -16.046875 17.265625 -16 17.265625 -15.90625 L 17.265625 -8.59375 C 17.265625 -8.5 17.21875 -8.453125 17.125 -8.453125 L 16.71875 -8.453125 C 16.625 -8.453125 16.578125 -8.5 16.578125 -8.59375 C 16.578125 -10.28125 16.085938 -11.253906 15.109375 -11.515625 C 14.835938 -11.585938 14.546875 -11.625 14.234375 -11.625 L 8.375 -11.625 C 8.257812 -11.625 8.203125 -11.566406 8.203125 -11.453125 L 8.203125 -3.125 C 8.203125 -2.269531 8.59375 -1.785156 9.375 -1.671875 C 9.601562 -1.640625 9.84375 -1.625 10.09375 -1.625 L 15.796875 -1.625 C 16.960938 -1.625 17.875 -2.140625 18.53125 -3.171875 C 18.988281 -3.921875 19.269531 -4.769531 19.375 -5.71875 C 19.414062 -6.039062 19.585938 -6.203125 19.890625 -6.203125 C 20.023438 -6.203125 20.09375 -6.128906 20.09375 -5.984375 L 19.53125 -0.234375 C 19.46875 -0.078125 19.390625 0 19.296875 0 L 0.25 0 C 0.164062 0 0.125 -0.046875 0.125 -0.140625 Z M 0.125 -0.140625 "/></g></g></g><g fill="#ffffff" fill-opacity="1"><g transform="translate(143.872943, 307.712178)"><g><path d="M 0.296875 -5.625 L 0.296875 -6.59375 L 1.953125 -6.59375 L 1.953125 -9.171875 L 3 -9.171875 L 3 -6.59375 L 4.640625 -6.59375 L 4.640625 -5.625 L 3 -5.625 L 3 0 L 1.953125 0 L 1.953125 -5.625 Z M 0.296875 -5.625 "/></g></g></g><g fill="#ffffff" fill-opacity="1"><g transform="translate(148.807932, 307.712178)"><g><path d="M 4.515625 -5.234375 C 4.273438 -5.453125 4.015625 -5.5625 3.734375 -5.5625 C 3.460938 -5.5625 3.234375 -5.488281 3.046875 -5.34375 C 2.847656 -5.175781 2.679688 -4.984375 2.546875 -4.765625 C 2.296875 -4.328125 2.171875 -3.835938 2.171875 -3.296875 L 2.171875 0 L 1.125 0 L 1.125 -6.59375 L 2.171875 -6.59375 L 2.171875 -5.234375 L 2.21875 -5.5 C 2.570312 -6.320312 3.117188 -6.734375 3.859375 -6.734375 C 4.085938 -6.734375 4.304688 -6.6875 4.515625 -6.59375 Z M 4.515625 -5.234375 "/></g></g></g><g fill="#ffffff" fill-opacity="1"><g transform="translate(153.472933, 307.712178)"><g><path d="M 6.375 -3.296875 C 6.375 -3.941406 6.15625 -4.503906 5.71875 -4.984375 C 5.269531 -5.460938 4.710938 -5.703125 4.046875 -5.703125 C 3.390625 -5.703125 2.84375 -5.460938 2.40625 -4.984375 C 1.945312 -4.503906 1.71875 -3.941406 1.71875 -3.296875 C 1.71875 -2.660156 1.945312 -2.101562 2.40625 -1.625 C 2.84375 -1.144531 3.390625 -0.90625 4.046875 -0.90625 C 4.710938 -0.90625 5.269531 -1.144531 5.71875 -1.625 C 6.15625 -2.101562 6.375 -2.660156 6.375 -3.296875 Z M 7.421875 0 L 6.375 0 L 6.375 -1.125 C 6.3125 -1.039062 6.25 -0.96875 6.1875 -0.90625 C 5.5625 -0.195312 4.796875 0.15625 3.890625 0.15625 C 2.972656 0.15625 2.207031 -0.195312 1.59375 -0.90625 C 0.976562 -1.582031 0.671875 -2.378906 0.671875 -3.296875 C 0.671875 -4.222656 0.976562 -5.023438 1.59375 -5.703125 C 2.207031 -6.398438 2.972656 -6.75 3.890625 -6.75 C 4.796875 -6.75 5.5625 -6.398438 6.1875 -5.703125 C 6.25 -5.628906 6.3125 -5.550781 6.375 -5.46875 L 6.375 -6.59375 L 7.421875 -6.59375 Z M 7.421875 0 "/></g></g></g><g fill="#ffffff" fill-opacity="1"><g transform="translate(162.022928, 307.712178)"><g><path d="M 3.1875 0.625 L 0.15625 -6.59375 L 1.296875 -6.59375 L 3.1875 -1.6875 L 5.078125 -6.59375 L 6.21875 -6.59375 Z M 3.1875 0.625 "/></g></g></g><g fill="#ffffff" fill-opacity="1"><g transform="translate(168.397916, 307.712178)"><g><path d="M 7.578125 -3.453125 L 7.578125 -2.890625 L 1.765625 -2.890625 C 1.867188 -2.328125 2.144531 -1.863281 2.59375 -1.5 C 3.050781 -1.125 3.5625 -0.9375 4.125 -0.9375 C 4.5 -0.9375 4.863281 -1.03125 5.21875 -1.21875 C 5.5625 -1.382812 5.847656 -1.625 6.078125 -1.9375 L 7.28125 -1.9375 C 7 -1.300781 6.578125 -0.804688 6.015625 -0.453125 C 5.441406 -0.078125 4.867188 0.109375 4.296875 0.109375 C 3.703125 0.109375 3.203125 0.015625 2.796875 -0.171875 C 2.367188 -0.347656 2 -0.59375 1.6875 -0.90625 C 1.007812 -1.5625 0.671875 -2.367188 0.671875 -3.328125 C 0.671875 -4.273438 1.007812 -5.09375 1.6875 -5.78125 C 2.363281 -6.445312 3.175781 -6.78125 4.125 -6.78125 C 5.039062 -6.78125 5.847656 -6.457031 6.546875 -5.8125 C 7.234375 -5.144531 7.578125 -4.359375 7.578125 -3.453125 Z M 6.46875 -3.796875 C 6.34375 -4.359375 6.0625 -4.820312 5.625 -5.1875 C 5.1875 -5.550781 4.6875 -5.734375 4.125 -5.734375 C 3.257812 -5.734375 2.582031 -5.347656 2.09375 -4.578125 C 1.945312 -4.335938 1.84375 -4.078125 1.78125 -3.796875 Z M 6.46875 -3.796875 "/></g></g></g><g fill="#ffffff" fill-opacity="1"><g transform="translate(176.572911, 307.712178)"><g><path d="M 2.171875 0 L 1.125 0 L 1.125 -11.25 L 2.171875 -11.25 Z M 2.171875 0 "/></g></g></g><g fill="#ffffff" fill-opacity="1"><g transform="translate(179.872906, 307.712178)"><g/></g></g><g fill="#ffffff" fill-opacity="1"><g transform="translate(183.922901, 307.712178)"><g><path d="M 6.375 -3.296875 C 6.375 -3.941406 6.15625 -4.503906 5.71875 -4.984375 C 5.269531 -5.460938 4.710938 -5.703125 4.046875 -5.703125 C 3.390625 -5.703125 2.84375 -5.460938 2.40625 -4.984375 C 1.945312 -4.503906 1.71875 -3.941406 1.71875 -3.296875 C 1.71875 -2.660156 1.945312 -2.101562 2.40625 -1.625 C 2.84375 -1.144531 3.390625 -0.90625 4.046875 -0.90625 C 4.710938 -0.90625 5.269531 -1.144531 5.71875 -1.625 C 6.15625 -2.101562 6.375 -2.660156 6.375 -3.296875 Z M 7.421875 0 L 6.375 0 L 6.375 -1.125 C 6.3125 -1.039062 6.25 -0.96875 6.1875 -0.90625 C 5.5625 -0.195312 4.796875 0.15625 3.890625 0.15625 C 2.972656 0.15625 2.207031 -0.195312 1.59375 -0.90625 C 0.976562 -1.582031 0.671875 -2.378906 0.671875 -3.296875 C 0.671875 -4.222656 0.976562 -5.023438 1.59375 -5.703125 C 2.207031 -6.398438 2.972656 -6.75 3.890625 -6.75 C 4.796875 -6.75 5.5625 -6.398438 6.1875 -5.703125 C 6.25 -5.628906 6.3125 -5.550781 6.375 -5.46875 L 6.375 -6.59375 L 7.421875 -6.59375 Z M 7.421875 0 "/></g></g></g><g fill="#ffffff" fill-opacity="1"><g transform="translate(192.472896, 307.712178)"><g><path d="M 6.46875 -3.296875 C 6.46875 -3.941406 6.25 -4.503906 5.8125 -4.984375 C 5.351562 -5.460938 4.796875 -5.703125 4.140625 -5.703125 C 3.503906 -5.703125 2.953125 -5.460938 2.484375 -4.984375 C 2.035156 -4.515625 1.8125 -3.953125 1.8125 -3.296875 C 1.8125 -2.648438 2.035156 -2.09375 2.484375 -1.625 C 2.953125 -1.144531 3.503906 -0.90625 4.140625 -0.90625 C 4.796875 -0.90625 5.351562 -1.144531 5.8125 -1.625 C 6.25 -2.101562 6.46875 -2.660156 6.46875 -3.296875 Z M 1.78125 0.90625 C 1.882812 1.3125 2.101562 1.675781 2.4375 2 C 2.894531 2.46875 3.445312 2.703125 4.09375 2.703125 C 4.738281 2.703125 5.300781 2.46875 5.78125 2 C 6.238281 1.539062 6.46875 0.984375 6.46875 0.328125 L 6.46875 -1.109375 C 6.414062 -1.035156 6.359375 -0.96875 6.296875 -0.90625 C 5.671875 -0.195312 4.898438 0.15625 3.984375 0.15625 C 3.066406 0.15625 2.300781 -0.195312 1.6875 -0.90625 C 1.070312 -1.582031 0.765625 -2.378906 0.765625 -3.296875 C 0.765625 -4.222656 1.070312 -5.023438 1.6875 -5.703125 C 2.300781 -6.398438 3.066406 -6.75 3.984375 -6.75 C 4.867188 -6.75 5.640625 -6.398438 6.296875 -5.703125 C 6.359375 -5.628906 6.414062 -5.554688 6.46875 -5.484375 L 6.46875 -6.59375 L 7.515625 -6.59375 L 7.515625 0.328125 C 7.515625 1.265625 7.179688 2.070312 6.515625 2.75 C 5.835938 3.414062 5.03125 3.75 4.09375 3.75 C 3.15625 3.75 2.351562 3.414062 1.6875 2.75 C 1.15625 2.21875 0.832031 1.601562 0.71875 0.90625 Z M 1.78125 0.90625 "/></g></g></g><g fill="#ffffff" fill-opacity="1"><g transform="translate(201.112887, 307.712178)"><g><path d="M 7.578125 -3.453125 L 7.578125 -2.890625 L 1.765625 -2.890625 C 1.867188 -2.328125 2.144531 -1.863281 2.59375 -1.5 C 3.050781 -1.125 3.5625 -0.9375 4.125 -0.9375 C 4.5 -0.9375 4.863281 -1.03125 5.21875 -1.21875 C 5.5625 -1.382812 5.847656 -1.625 6.078125 -1.9375 L 7.28125 -1.9375 C 7 -1.300781 6.578125 -0.804688 6.015625 -0.453125 C 5.441406 -0.078125 4.867188 0.109375 4.296875 0.109375 C 3.703125 0.109375 3.203125 0.015625 2.796875 -0.171875 C 2.367188 -0.347656 2 -0.59375 1.6875 -0.90625 C 1.007812 -1.5625 0.671875 -2.367188 0.671875 -3.328125 C 0.671875 -4.273438 1.007812 -5.09375 1.6875 -5.78125 C 2.363281 -6.445312 3.175781 -6.78125 4.125 -6.78125 C 5.039062 -6.78125 5.847656 -6.457031 6.546875 -5.8125 C 7.234375 -5.144531 7.578125 -4.359375 7.578125 -3.453125 Z M 6.46875 -3.796875 C 6.34375 -4.359375 6.0625 -4.820312 5.625 -5.1875 C 5.1875 -5.550781 4.6875 -5.734375 4.125 -5.734375 C 3.257812 -5.734375 2.582031 -5.347656 2.09375 -4.578125 C 1.945312 -4.335938 1.84375 -4.078125 1.78125 -3.796875 Z M 6.46875 -3.796875 "/></g></g></g><g fill="#ffffff" fill-opacity="1"><g transform="translate(209.287882, 307.712178)"><g><path d="M 5.6875 0 L 5.6875 -4.125 C 5.6875 -4.550781 5.59375 -4.921875 5.40625 -5.234375 C 5.195312 -5.535156 4.867188 -5.6875 4.421875 -5.6875 C 3.972656 -5.6875 3.609375 -5.601562 3.328125 -5.4375 C 3.046875 -5.257812 2.820312 -5.035156 2.65625 -4.765625 C 2.332031 -4.265625 2.171875 -3.597656 2.171875 -2.765625 L 2.171875 0 L 1.125 0 L 1.125 -6.59375 L 2.171875 -6.59375 L 2.171875 -5.453125 C 2.390625 -5.828125 2.671875 -6.132812 3.015625 -6.375 C 3.378906 -6.613281 3.796875 -6.734375 4.265625 -6.734375 C 4.734375 -6.734375 5.113281 -6.671875 5.40625 -6.546875 C 5.6875 -6.398438 5.929688 -6.210938 6.140625 -5.984375 C 6.535156 -5.515625 6.734375 -4.894531 6.734375 -4.125 L 6.734375 0 Z M 5.6875 0 "/></g></g></g><g fill="#ffffff" fill-opacity="1"><g transform="translate(216.922876, 307.712178)"><g><path d="M 7.296875 -4.234375 L 6.15625 -4.234375 C 5.96875 -4.648438 5.6875 -4.988281 5.3125 -5.25 C 4.925781 -5.507812 4.539062 -5.640625 4.15625 -5.640625 C 3.757812 -5.640625 3.425781 -5.578125 3.15625 -5.453125 C 2.875 -5.328125 2.632812 -5.160156 2.4375 -4.953125 C 1.976562 -4.484375 1.75 -3.929688 1.75 -3.296875 C 1.75 -2.660156 1.976562 -2.113281 2.4375 -1.65625 C 2.875 -1.175781 3.410156 -0.9375 4.046875 -0.9375 C 4.472656 -0.9375 4.863281 -1.050781 5.21875 -1.28125 C 5.570312 -1.5 5.847656 -1.789062 6.046875 -2.15625 L 7.234375 -2.15625 C 6.859375 -1.09375 6.140625 -0.382812 5.078125 -0.03125 C 4.753906 0.09375 4.378906 0.15625 3.953125 0.15625 C 3.535156 0.15625 3.125 0.0546875 2.71875 -0.140625 C 2.300781 -0.316406 1.945312 -0.566406 1.65625 -0.890625 C 1 -1.566406 0.671875 -2.367188 0.671875 -3.296875 C 0.671875 -4.234375 1 -5.039062 1.65625 -5.71875 C 2.3125 -6.394531 3.109375 -6.734375 4.046875 -6.734375 C 4.804688 -6.734375 5.492188 -6.5 6.109375 -6.03125 C 6.679688 -5.582031 7.078125 -4.984375 7.296875 -4.234375 Z M 7.296875 -4.234375 "/></g></g></g><g fill="#ffffff" fill-opacity="1"><g transform="translate(224.737863, 307.712178)"><g><path d="M 1.96875 3.75 L 0.6875 3.75 L 2.90625 -1.078125 L 0.15625 -6.59375 L 1.34375 -6.59375 L 3.46875 -2.171875 L 5.359375 -6.59375 L 6.53125 -6.59375 Z M 1.96875 3.75 "/></g></g></g></svg>